<?xml version="1.0" standalone="no"?>
<!DOCTYPE svg PUBLIC "-//W3C//DTD SVG 20010904//EN"
 "http://www.w3.org/TR/2001/REC-SVG-20010904/DTD/svg10.dtd">
<svg version="1.0" xmlns="http://www.w3.org/2000/svg"
 width="589.000000pt" height="135.000000pt" viewBox="0 0 589.000000 135.000000"
 preserveAspectRatio="xMidYMid meet">
<metadata>
Created by potrace 1.15, written by Peter Selinger 2001-2017
</metadata>
<g transform="translate(0.000000,135.000000) scale(0.100000,-0.100000)"
fill="#000000" stroke="none">
<path d="M2288 848 c15 -15 16 -82 1 -73 -21 13 -79 -6 -96 -31 -18 -29 -21
-101 -4 -133 16 -29 56 -37 86 -17 30 20 35 20 35 1 0 -11 11 -15 37 -15 29 0
34 3 25 12 -8 8 -12 54 -12 140 l0 128 -42 0 c-33 0 -39 -3 -30 -12z"/>
<path d="M4753 842 c14 -15 17 -40 17 -125 0 -60 -4 -109 -10 -112 -23 -14 -7
-25 37 -25 37 0 44 3 35 12 -8 8 -12 54 -12 140 l0 128 -42 0 c-39 0 -40 -1
-25 -18z"/>
<path d="M1610 840 c0 -5 5 -10 10 -10 6 0 10 -45 10 -115 0 -70 -4 -115 -10
-115 -5 0 -10 -4 -10 -10 0 -5 14 -10 30 -10 29 0 40 13 20 25 -6 3 -10 49
-10 103 1 87 2 94 14 72 8 -14 24 -58 37 -98 30 -94 44 -92 84 15 16 45 33 85
38 89 4 4 7 -35 7 -87 0 -61 -4 -99 -12 -107 -9 -9 -1 -12 37 -12 38 0 46 3
37 12 -17 17 -16 229 1 247 10 10 3 12 -33 9 l-44 -3 -27 -73 c-15 -41 -30
-76 -32 -79 -3 -2 -17 32 -32 76 l-27 81 -44 0 c-24 0 -44 -4 -44 -10z"/>
<path d="M2890 843 c-29 -11 -50 -36 -50 -60 0 -37 16 -60 60 -84 41 -23 58
-54 46 -85 -9 -24 -69 -15 -81 14 -14 32 -35 28 -35 -8 0 -25 4 -30 35 -36 77
-14 135 16 135 71 0 38 -13 55 -67 89 -25 15 -43 34 -43 44 0 45 63 58 82 17
15 -33 28 -32 28 4 0 17 -6 31 -16 35 -19 7 -73 7 -94 -1z"/>
<path d="M4363 835 c-41 -18 -63 -61 -63 -125 0 -97 50 -140 146 -125 41 6 44
9 44 36 0 35 -21 39 -35 7 -15 -35 -59 -36 -81 -3 -24 36 -23 144 0 180 22 33
66 31 81 -2 14 -32 35 -29 35 6 0 21 -6 30 -22 35 -36 9 -70 6 -105 -9z"/>
<path d="M1995 769 c-11 -6 -26 -19 -32 -27 -18 -22 -16 -103 2 -129 33 -46
130 -38 154 13 17 37 13 99 -7 124 -20 25 -87 36 -117 19z"/>
<path d="M2460 767 c-64 -32 -66 -147 -3 -176 38 -18 70 -13 100 15 21 20 23
24 8 18 -50 -18 -72 -16 -89 7 -29 42 -21 49 50 49 70 0 67 -4 50 56 -7 22
-44 44 -74 44 -9 0 -28 -6 -42 -13z"/>
<path d="M3413 770 c-37 -15 -56 -55 -50 -106 6 -60 26 -79 82 -79 34 0 50 6
67 24 21 22 21 23 3 16 -45 -17 -66 -17 -85 0 -11 10 -20 26 -20 37 0 15 8 18
60 18 58 0 60 1 60 25 0 14 -11 37 -25 50 -25 26 -54 30 -92 15z"/>
<path d="M3570 771 c0 -6 5 -13 10 -16 13 -8 13 -131 0 -156 -10 -18 -7 -19
37 -19 36 0 44 3 35 12 -7 7 -12 39 -12 74 0 65 15 92 46 80 13 -5 16 -19 12
-86 l-3 -80 44 0 c35 0 42 3 33 12 -7 7 -12 33 -12 59 0 76 -10 110 -37 122
-20 9 -31 8 -54 -5 -24 -14 -29 -15 -29 -3 0 10 -11 15 -35 15 -19 0 -35 -4
-35 -9z"/>
<path d="M4045 768 c-34 -18 -45 -40 -45 -89 0 -67 24 -94 84 -94 44 0 89 25
73 42 -4 3 -13 1 -19 -5 -15 -15 -61 -15 -76 0 -7 7 -12 22 -12 35 0 21 4 23
60 23 58 0 60 1 60 25 0 56 -73 92 -125 63z"/>
<path d="M4570 767 c-15 -7 -31 -29 -39 -52 -27 -78 27 -145 106 -130 58 11
86 71 67 143 -12 43 -84 64 -134 39z"/>
<path d="M5045 768 c-34 -18 -45 -40 -45 -89 0 -67 24 -94 84 -94 44 0 89 25
73 42 -4 3 -13 1 -19 -5 -15 -15 -61 -15 -76 0 -7 7 -12 22 -12 35 0 21 4 23
60 23 58 0 60 1 60 25 0 56 -73 92 -125 63z"/>
<path d="M5245 768 c-11 -6 -23 -16 -27 -22 -13 -19 -9 -64 7 -79 13 -13 13
-17 -1 -28 -10 -9 -14 -22 -10 -41 3 -15 1 -30 -4 -33 -6 -3 -10 -15 -10 -26
0 -27 43 -42 103 -36 60 5 93 33 83 70 -7 27 -30 37 -93 37 -62 0 -58 26 4 33
58 6 76 28 70 80 -4 27 -1 37 9 37 8 0 14 5 14 10 0 14 -120 12 -145 -2z"/>
<path d="M5473 770 c-37 -15 -56 -55 -50 -106 6 -60 26 -79 82 -79 34 0 50 6
67 24 21 22 21 23 3 16 -45 -17 -66 -17 -85 0 -11 10 -20 26 -20 37 0 15 8 18
60 18 58 0 60 1 60 25 0 14 -11 37 -25 50 -25 26 -54 30 -92 15z"/>
<path d="M170 570 c-1 -8 -2 -21 -1 -27 1 -7 -3 -13 -9 -13 -5 0 -10 7 -10 16
0 8 -4 13 -9 10 -16 -10 1 -94 27 -133 8 -13 11 -23 8 -23 -8 0 53 -87 94
-136 103 -122 285 -204 455 -204 238 0 440 131 556 358 21 42 24 56 14 65 -6
7 -14 19 -18 27 -4 12 -6 11 -6 -2 -1 -21 -27 -24 -34 -5 -4 7 -6 6 -6 -5 -1
-14 -6 -15 -33 -8 -26 8 -34 6 -45 -10 -7 -10 -20 -26 -29 -35 -8 -8 -13 -15
-10 -15 3 0 -4 -12 -17 -27 -51 -62 -104 -104 -176 -139 -70 -34 -84 -38 -182
-42 -109 -4 -136 2 -247 57 -40 19 -152 129 -152 148 0 7 -4 13 -9 13 -5 0
-19 20 -31 45 -15 31 -28 45 -42 45 -11 0 -26 7 -35 16 -9 8 -21 13 -29 10 -7
-3 -15 3 -17 12 -4 13 -5 14 -7 2z m1052 -127 c22 -20 23 -33 3 -33 -9 0 -12
-6 -9 -15 4 -8 2 -15 -4 -15 -5 0 -12 -9 -15 -20 -3 -13 -14 -20 -29 -20 -16
0 -19 -3 -9 -9 10 -7 10 -12 -5 -30 -10 -11 -24 -21 -32 -21 -7 0 -10 -4 -7
-10 3 -5 2 -10 -4 -10 -5 0 -16 -6 -23 -13 -23 -23 -97 -67 -113 -67 -8 0 -15
6 -16 13 -1 6 -5 1 -9 -13 l-8 -25 -7 22 c-4 13 -12 20 -17 16 -6 -3 -9 0 -6
8 3 8 13 14 24 14 10 0 24 6 30 14 6 8 16 11 22 7 7 -4 12 -3 12 3 0 6 11 13
25 17 14 3 23 10 20 14 -10 16 16 22 33 8 15 -12 16 -11 4 4 -12 15 -9 22 25
56 51 52 70 76 78 101 8 25 13 26 37 4z"/>
</g>
</svg>
